<svg width="18" height="19" viewBox="0 0 18 19" fill="none" xmlns="http://www.w3.org/2000/svg">
    <g filter="url(#filter0_d_33_892)">
        <path d="M14.8333 2H3.16667C2.85725 2 2.5605 2.12668 2.34171 2.35217C2.12292 2.57767 2 2.8835 2 3.2024V7.61369C2 14.3321 7.52708 16.564 8.63542 16.9398C8.87223 17.0201 9.12777 17.0201 9.36458 16.9398C10.4729 16.564 16 14.3321 16 7.61369V3.2024C16 2.8835 15.8771 2.57767 15.6583 2.35217C15.4395 2.12668 15.1428 2 14.8333 2ZM14.8333 7.61369C14.8333 13.4904 9.99167 15.4593 9 15.7975C8.01562 15.4593 3.16667 13.4979 3.16667 7.61369V3.2024H14.8333V7.61369ZM5.39062 9.34965C5.33137 9.29637 5.28318 9.23129 5.24894 9.15832C5.21471 9.08535 5.19515 9.006 5.19144 8.92504C5.18772 8.84409 5.19992 8.76319 5.22732 8.68722C5.25471 8.61124 5.29673 8.54176 5.35084 8.48295C5.40495 8.42414 5.47004 8.37721 5.5422 8.34499C5.61436 8.31277 5.69209 8.29591 5.77073 8.29544C5.84937 8.29497 5.92729 8.31089 5.99981 8.34225C6.07232 8.37361 6.13794 8.41975 6.19271 8.47791L7.92812 10.1838L11.8073 6.37372C11.9207 6.27173 12.068 6.21888 12.2184 6.22621C12.3687 6.23354 12.5105 6.30049 12.6141 6.41306C12.7176 6.52563 12.775 6.6751 12.7741 6.83023C12.7732 6.98536 12.7142 7.13414 12.6094 7.24546L8.33646 11.4538C8.22599 11.5609 8.07978 11.6201 7.92812 11.6192C7.7787 11.6198 7.6349 11.5605 7.52708 11.4538L5.39062 9.34965Z" fill="#0060BA"/>
    </g>
    <defs>
        <filter id="filter0_d_33_892" x="0" y="0" width="18" height="19" filterUnits="userSpaceOnUse" color-interpolation-filters="sRGB">
            <feFlood flood-opacity="0" result="BackgroundImageFix"/>
            <feColorMatrix in="SourceAlpha" type="matrix" values="0 0 0 0 0 0 0 0 0 0 0 0 0 0 0 0 0 0 127 0" result="hardAlpha"/>
            <feOffset/>
            <feGaussianBlur stdDeviation="1"/>
            <feComposite in2="hardAlpha" operator="out"/>
            <feColorMatrix type="matrix" values="0 0 0 0 0.175 0 0 0 0 0.54625 0 0 0 0 1 0 0 0 1 0"/>
            <feBlend mode="normal" in2="BackgroundImageFix" result="effect1_dropShadow_33_892"/>
            <feBlend mode="normal" in="SourceGraphic" in2="effect1_dropShadow_33_892" result="shape"/>
        </filter>
    </defs>
</svg>

