<svg width="40" height="40" viewBox="0 0 40 40" fill="none" xmlns="http://www.w3.org/2000/svg">
    <path d="M31.998 19.998V19.992C31.998 16.4413 30.4521 13.2526 27.9973 11.0598L27.9853 11.0498C27.955 11.0171 27.9212 10.9879 27.8843 10.9628L27.8823 10.9618C25.7021 9.04746 22.8984 7.99437 19.997 8.00002C16.9653 8.00002 14.1975 9.12593 12.0877 10.9838L12.1007 10.9728C12.0752 10.9921 12.0518 11.0138 12.0307 11.0378C10.7623 12.1609 9.74705 13.5417 9.05217 15.0867C8.3573 16.6318 7.99865 18.3069 8 20.001C8 23.5507 9.54387 26.7395 11.9967 28.9333L12.0087 28.9433C12.0404 28.9793 12.076 29.0118 12.1147 29.0403L12.1167 29.0413C14.2963 30.9527 17.0979 32.0043 19.997 31.999C22.9096 32.0035 25.7232 30.9422 27.9073 29.0153L27.8943 29.0263C29.1847 27.9044 30.219 26.5185 30.9273 24.9623C31.6357 23.4061 32.0015 21.7159 32 20.006V19.999L31.998 19.998ZM27.5364 27.8024C26.942 27.3216 26.3028 26.899 25.6275 26.5405L25.5625 26.5085C26.1755 24.7416 26.5445 22.7048 26.5794 20.586V20.57H30.8401C30.6964 23.3111 29.5166 25.8953 27.5394 27.7994L27.5364 27.8024ZM20.571 26.2975C21.8538 26.3665 23.0527 26.6485 24.1587 27.1074L24.0867 27.0814C23.2007 29.1013 21.9538 30.4891 20.571 30.7941V26.2975ZM20.571 25.1536V20.57H25.4385C25.3999 22.4681 25.0708 24.3491 24.4626 26.1475L24.5016 26.0165C23.2602 25.5063 21.9398 25.2147 20.5989 25.1546L20.572 25.1536H20.571ZM20.571 19.4261V14.8424C21.948 14.7796 23.3037 14.4782 24.5776 13.9515L24.4986 13.9805C25.0536 15.5994 25.3945 17.4652 25.4385 19.4051V19.4261H20.571ZM20.571 13.6985V9.20392C21.9538 9.5089 23.2007 10.8908 24.0867 12.9166C23.0527 13.3466 21.8538 13.6276 20.5999 13.6975L20.571 13.6985ZM23.4247 9.69888C24.603 10.0919 25.7049 10.6845 26.6824 11.4507L26.6594 11.4327C26.2165 11.7807 25.7195 12.1087 25.1956 12.3937L25.1396 12.4217C24.7162 11.4225 24.1341 10.4983 23.4157 9.68488L23.4247 9.69588V9.69888ZM19.425 9.20692V13.6985C18.1916 13.6356 16.9782 13.3617 15.8373 12.8886L15.9093 12.9146C16.7993 10.8948 18.0442 9.5079 19.427 9.20292L19.425 9.20692ZM14.8574 12.4187C14.3154 12.127 13.7989 11.7902 13.3136 11.4117L13.3376 11.4297C14.2866 10.686 15.3541 10.1072 16.4953 9.71788L16.5713 9.69488C15.8718 10.4862 15.3018 11.3833 14.8824 12.3527L14.8574 12.4187ZM19.427 14.8414V19.4251H14.5595C14.6035 17.4642 14.9444 15.5984 15.5384 13.8485L15.4994 13.9795C16.7403 14.4889 18.06 14.7802 19.4001 14.8404L19.427 14.8414ZM19.427 20.569V25.1526C18.05 25.2154 16.6943 25.5169 15.4204 26.0435L15.4994 26.0145C14.9444 24.3967 14.6035 22.5298 14.5595 20.59V20.569H19.427ZM19.427 26.2965V30.7911C18.0442 30.4861 16.7973 29.1043 15.9113 27.0784C16.9453 26.6485 18.1442 26.3685 19.3981 26.2985L19.427 26.2965ZM16.5773 30.2962C15.3993 29.9043 14.2974 29.3131 13.3196 28.5483L13.3436 28.5663C13.7865 28.2183 14.2835 27.8904 14.8074 27.6054L14.8634 27.5774C15.2833 28.577 15.8654 29.5003 16.5863 30.3102L16.5773 30.3002V30.2962ZM25.1406 27.5764C25.7205 27.8914 26.2175 28.2183 26.6844 28.5833L26.6604 28.5653C25.7114 29.3091 24.6439 29.8878 23.5027 30.2772L23.4267 30.3002C24.1262 29.5092 24.6962 28.6125 25.1156 27.6434L25.1406 27.5784V27.5764ZM30.8401 19.4261H26.5794C26.5488 17.3572 26.1918 15.3061 25.5215 13.3486L25.5625 13.4866C26.2689 13.1147 26.9376 12.6753 27.5594 12.1747L27.5354 12.1927C29.5085 14.0895 30.6887 16.6641 30.8381 19.3971L30.8391 19.4251L30.8401 19.4261ZM12.4616 12.1937C13.0376 12.6616 13.6845 13.0906 14.3705 13.4556L14.4355 13.4876C13.8225 15.2544 13.4535 17.2912 13.4186 19.4101V19.4261H9.15691C9.30059 16.6849 10.4804 14.1007 12.4576 12.1967L12.4616 12.1937ZM9.15791 20.57H13.4186C13.4492 22.6388 13.8062 24.6899 14.4765 26.6475L14.4355 26.5095C13.6845 26.9084 13.0386 27.3374 12.4386 27.8214L12.4626 27.8034C10.4895 25.9065 9.30926 23.3319 9.15991 20.599L9.15891 20.571L9.15791 20.57Z" fill="#3A5166"/>
    <g filter="url(#filter0_d_57_521)">
        <rect x="2" y="2" width="36" height="36" rx="18" fill="#296EC8" fill-opacity="0.12" shape-rendering="crispEdges"/>
        <rect x="3" y="3" width="34" height="34" rx="17" stroke="white" stroke-width="2" shape-rendering="crispEdges"/>
    </g>
    <defs>
        <filter id="filter0_d_57_521" x="0" y="0" width="40" height="40" filterUnits="userSpaceOnUse" color-interpolation-filters="sRGB">
            <feFlood flood-opacity="0" result="BackgroundImageFix"/>
            <feColorMatrix in="SourceAlpha" type="matrix" values="0 0 0 0 0 0 0 0 0 0 0 0 0 0 0 0 0 0 127 0" result="hardAlpha"/>
            <feOffset/>
            <feGaussianBlur stdDeviation="1"/>
            <feComposite in2="hardAlpha" operator="out"/>
            <feColorMatrix type="matrix" values="0 0 0 0 0 0 0 0 0 0 0 0 0 0 0 0 0 0 0.25 0"/>
            <feBlend mode="normal" in2="BackgroundImageFix" result="effect1_dropShadow_57_521"/>
            <feBlend mode="normal" in="SourceGraphic" in2="effect1_dropShadow_57_521" result="shape"/>
        </filter>
    </defs>
</svg>
